<svg width="16" height="17" viewBox="0 0 16 17" fill="none" xmlns="http://www.w3.org/2000/svg">
<path fill-rule="evenodd" clip-rule="evenodd" d="M3.8929 13.2525C3.6089 12.8935 3.2639 12.1595 2.6499 11.2685C2.3019 10.7645 1.4389 9.81553 1.1819 9.33353C0.958897 8.90753 0.982897 8.71653 1.0359 8.36353C1.1299 7.73553 1.7739 7.24653 2.4609 7.31253C2.9799 7.36153 3.4199 7.70453 3.8159 8.02853C4.0549 8.22353 4.3489 8.60253 4.5259 8.81653C4.6889 9.01253 4.7289 9.09353 4.9029 9.32553C5.1329 9.63253 5.2049 9.78453 5.1169 9.44653C5.0459 8.95053 4.9299 8.10353 4.7619 7.35453C4.6339 6.78653 4.6029 6.69753 4.4809 6.26153C4.3519 5.79753 4.2859 5.47253 4.1649 4.98053C4.0809 4.63253 3.9299 3.92153 3.8889 3.52153C3.8319 2.97453 3.8019 2.08253 4.1529 1.67253C4.4279 1.35153 5.0589 1.25453 5.4499 1.45253C5.9619 1.71153 6.2529 2.45553 6.3859 2.75253C6.6249 3.28653 6.7729 3.90353 6.9019 4.71353C7.0659 5.74453 7.3679 7.17553 7.3779 7.47653C7.4019 7.10753 7.3099 6.33053 7.3739 5.97653C7.4319 5.65553 7.7019 5.28253 8.0399 5.18153C8.3259 5.09653 8.6609 5.06553 8.9559 5.12653C9.2689 5.19053 9.5989 5.41453 9.7219 5.62553C10.0839 6.24953 10.0909 7.52453 10.1059 7.45653C10.1919 7.08053 10.1769 6.22753 10.3899 5.87253C10.5299 5.63853 10.8869 5.42753 11.0769 5.39353C11.3709 5.34153 11.7319 5.32553 12.0409 5.38553C12.2899 5.43453 12.6269 5.73053 12.7179 5.87253C12.9359 6.21653 13.0599 7.18953 13.0969 7.53053C13.1119 7.67153 13.1709 7.13853 13.3899 6.79453C13.7959 6.15553 15.2329 6.03153 15.2879 7.43353C15.3129 8.08753 15.3079 8.05753 15.3079 8.49753C15.3079 9.01453 15.2959 9.32553 15.2679 9.69953C15.2369 10.0995 15.1509 11.0035 15.0259 11.4415C14.9399 11.7425 14.6549 12.4195 14.3739 12.8255C14.3739 12.8255 13.2999 14.0755 13.1829 14.6385C13.0649 15.2005 13.1039 15.2045 13.0809 15.6035C13.0579 16.0015 13.2019 16.5255 13.2019 16.5255C13.2019 16.5255 12.3999 16.6295 11.9679 16.5605C11.5769 16.4975 11.0929 15.7195 10.9679 15.4815C10.7959 15.1535 10.4289 15.2165 10.2859 15.4585C10.0609 15.8415 9.5769 16.5285 9.2349 16.5715C8.5669 16.6555 7.1809 16.6025 6.0959 16.5915C6.0959 16.5915 6.2809 15.5805 5.8689 15.2335C5.5639 14.9745 5.0389 14.4495 4.7249 14.1735L3.8929 13.2525Z" fill="white"/>
<path fill-rule="evenodd" clip-rule="evenodd" d="M3.8929 13.2525C3.6089 12.8935 3.2639 12.1595 2.6499 11.2685C2.3019 10.7645 1.4389 9.81553 1.1819 9.33353C0.958897 8.90753 0.982897 8.71653 1.0359 8.36353C1.1299 7.73553 1.7739 7.24653 2.4609 7.31253C2.9799 7.36153 3.4199 7.70453 3.8159 8.02853C4.0549 8.22353 4.3489 8.60253 4.5259 8.81653C4.6889 9.01253 4.7289 9.09353 4.9029 9.32553C5.1329 9.63253 5.2049 9.78453 5.1169 9.44653C5.0459 8.95053 4.9299 8.10353 4.7619 7.35453C4.6339 6.78653 4.6029 6.69753 4.4809 6.26153C4.3519 5.79753 4.2859 5.47253 4.1649 4.98053C4.0809 4.63253 3.9299 3.92153 3.8889 3.52153C3.8319 2.97453 3.8019 2.08253 4.1529 1.67253C4.4279 1.35153 5.0589 1.25453 5.4499 1.45253C5.9619 1.71153 6.2529 2.45553 6.3859 2.75253C6.6249 3.28653 6.7729 3.90353 6.9019 4.71353C7.0659 5.74453 7.3679 7.17553 7.3779 7.47653C7.4019 7.10753 7.3099 6.33053 7.3739 5.97653C7.4319 5.65553 7.7019 5.28253 8.0399 5.18153C8.3259 5.09653 8.6609 5.06553 8.9559 5.12653C9.2689 5.19053 9.5989 5.41453 9.7219 5.62553C10.0839 6.24953 10.0909 7.52453 10.1059 7.45653C10.1919 7.08053 10.1769 6.22753 10.3899 5.87253C10.5299 5.63853 10.8869 5.42753 11.0769 5.39353C11.3709 5.34153 11.7319 5.32553 12.0409 5.38553C12.2899 5.43453 12.6269 5.73053 12.7179 5.87253C12.9359 6.21653 13.0599 7.18953 13.0969 7.53053C13.1119 7.67153 13.1709 7.13853 13.3899 6.79453C13.7959 6.15553 15.2329 6.03153 15.2879 7.43353C15.3129 8.08753 15.3079 8.05753 15.3079 8.49753C15.3079 9.01453 15.2959 9.32553 15.2679 9.69953C15.2369 10.0995 15.1509 11.0035 15.0259 11.4415C14.9399 11.7425 14.6549 12.4195 14.3739 12.8255C14.3739 12.8255 13.2999 14.0755 13.1829 14.6385C13.0649 15.2005 13.1039 15.2045 13.0809 15.6035C13.0579 16.0015 13.2019 16.5255 13.2019 16.5255C13.2019 16.5255 12.3999 16.6295 11.9679 16.5605C11.5769 16.4975 11.0929 15.7195 10.9679 15.4815C10.7959 15.1535 10.4289 15.2165 10.2859 15.4585C10.0609 15.8415 9.5769 16.5285 9.2349 16.5715C8.5669 16.6555 7.1809 16.6025 6.0959 16.5915C6.0959 16.5915 6.2809 15.5805 5.8689 15.2335C5.5639 14.9745 5.0389 14.4495 4.7249 14.1735L3.8929 13.2525V13.2525Z" stroke="#2B2B43" stroke-width="0.75" stroke-linecap="round" stroke-linejoin="round"/>
<path d="M12.1278 13.607V10.148" stroke="#2B2B43" stroke-width="0.75" stroke-linecap="round"/>
<path d="M10.1122 13.6187L10.0962 10.1457" stroke="#2B2B43" stroke-width="0.75" stroke-linecap="round"/>
<path d="M8.11609 10.1773L8.13709 13.6033" stroke="#2B2B43" stroke-width="0.75" stroke-linecap="round"/>
</svg>
