<svg width="20" height="20" viewBox="0 0 20 20" fill="none" xmlns="http://www.w3.org/2000/svg">
<rect width="20" height="20" rx="8" fill="#4E60FF"/>
<path d="M11.132 14.08C10.932 14.08 10.7753 14.0267 10.662 13.92C10.5486 13.8067 10.492 13.6467 10.492 13.44V12.66H8.02195C7.81529 12.66 7.64862 12.6167 7.52195 12.53C7.40195 12.4433 7.34195 12.3067 7.34195 12.12C7.34195 12.0133 7.36862 11.8967 7.42195 11.77C7.48195 11.6433 7.58529 11.4767 7.73195 11.27L10.472 7.3C10.5653 7.16 10.6686 7.05333 10.782 6.98C10.8953 6.90667 11.0253 6.87 11.172 6.87C11.3453 6.87 11.4886 6.92333 11.602 7.03C11.7153 7.13 11.772 7.29 11.772 7.51V11.6H12.262C12.4553 11.6 12.5986 11.6467 12.692 11.74C12.792 11.8267 12.842 11.9567 12.842 12.13C12.842 12.3033 12.792 12.4367 12.692 12.53C12.5986 12.6167 12.4553 12.66 12.262 12.66H11.772V13.44C11.772 13.6467 11.7153 13.8067 11.602 13.92C11.4886 14.0267 11.332 14.08 11.132 14.08ZM10.492 11.6V8.48H10.782L8.42195 11.94V11.6H10.492Z" fill="white"/>
</svg>
